<?xml version="1.0" encoding="UTF-8" standalone="no"?>
<!-- Created with Inkscape (http://www.inkscape.org/) -->

<svg
   xmlns:dc="http://purl.org/dc/elements/1.1/"
   xmlns:cc="http://creativecommons.org/ns#"
   xmlns:rdf="http://www.w3.org/1999/02/22-rdf-syntax-ns#"
   xmlns:svg="http://www.w3.org/2000/svg"
   xmlns="http://www.w3.org/2000/svg"
   version="1.1"
   width="1024"
   height="768"
   viewBox="0 0 1024 768"
   id="Drawing"
   xml:space="preserve"><metadata
   id="metadata115"><rdf:RDF><cc:Work
       rdf:about=""><dc:format>image/svg+xml</dc:format><dc:type
         rdf:resource="http://purl.org/dc/dcmitype/StillImage" /><dc:title></dc:title></cc:Work></rdf:RDF></metadata><defs
   id="defs113" />
<g
   id="g3">
	<path
   d="M 341.98,192.374 C 333.222,279.566 324.5,320.5 345,349.5 c 18.815,26.617 39.5,46 101.5,55.35 C 509.111,414.291 550,423 550,481 c 0,73 -4,82 -70,82 -32.5,0 -153.5,0.5 -179.5,0 -26,-0.5 -55,1 -70.5,-18.5 -15.5,-19.5 -32.79,-47.857 -44,-71 -15.5,-32 10.799,-61.652 62,-70 46,-7.5 67.833,-47.001 61.513,-83 -4.833,-27.529 -5.513,-60 -41.104,-90.812"
   id="path5"
   style="fill:none;stroke:#404040;stroke-width:3" />
	<path
   d="M 360,563.223 C 338.5,538.5 343,541.5 334.5,503.5 325.079,461.384 333,444 323.5,431 308.685,410.727 295,415.5 274,426.5 c -24.569,12.869 -37.5,41 -6.5,60.5 35.255,22.177 45.282,61 -5.164,74.037"
   id="path7"
   style="fill:none;stroke:#404040;stroke-width:3;stroke-linecap:round" />
	<path
   d="M 295.021,377.798 C 308.513,364.5 302,331.842 276.205,316.573 260.515,307.286 223.662,310.345 204.274,347.5 181.575,391 159.892,399.055 137.61,379.953 122.5,367 136,315 186,290.5 c 41.86,-20.512 92.256,-37.352 105.5,-26 24.5,21 23,65.5 40,86 17,20.5 69.401,50.141 101.701,52.07"
   id="path9"
   style="fill:none;stroke:#404040;stroke-width:3;stroke-linecap:round" />
</g>
<g
   id="g11">
	<path
   d="m 453.25,178 c -15.74,0 -28.5,12.76 -28.5,28.5 0,15.74 12.76,28.5 28.5,28.5"
   id="path13"
   style="fill:none;stroke:#404040;stroke-width:3;stroke-linecap:round" />
	<path
   d="m 569,239 c 16.568,0 30,-13.431 30,-30 0,-16.569 -13.432,-30 -30,-30"
   id="path15"
   style="fill:none;stroke:#404040;stroke-width:3;stroke-linecap:round" />
	<path
   d="M 872.722,277.693 C 844,256.5 805.992,246.661 779.5,246 745.917,245.162 745.919,245.175 279,229.5 c -18,0 -69.5,5.5 -105.075,26.797"
   id="path17"
   style="fill:none;stroke:#404040;stroke-width:3" />
</g>
<path
   d="m 612,178 c -19.964,-0.333 -180,-2 -198,-2 -31,0 -64.247,13.289 -132.5,38.5 C 235.425,231.519 66,269 66,414 c 0,142.5 124,192 233.5,192 13.261,0 395.654,0 413,0 C 858.785,606 948,540.5 948,414 948,276.5 788.182,235.237 748.431,219.5 698.023,199.545 642,178.5 612,178 z"
   id="path19"
   style="fill:none;stroke:#000000;stroke-width:12" />
<g
   id="g21">
	<rect
   width="12"
   height="84"
   x="506"
   y="141"
   id="rect23"
   style="fill:#ffffff;stroke:#000000;stroke-width:0.5" />
	<line
   fill="none"
   stroke="#000000"
   stroke-width="6"
   stroke-dasharray="6"
   x1="509"
   y1="141"
   x2="509"
   y2="225"
   id="line25"
   style="fill:none;stroke:#000000;stroke-width:6;stroke-dasharray:6" />
	<line
   fill="none"
   stroke="#000000"
   stroke-width="6"
   stroke-dasharray="6"
   x1="515"
   y1="147"
   x2="515"
   y2="225"
   id="line27"
   style="fill:none;stroke:#000000;stroke-width:6;stroke-dasharray:6" />
</g>
<g
   id="g29">
	<text
   transform="translate(858.7852,692.168)"
   id="text31"
   style="font-size:72px;font-style:normal;font-variant:normal;font-weight:normal;font-stretch:normal;text-align:start;line-height:125%;writing-mode:lr-tb;text-anchor:start;font-family:LiberationSerif;-inkscape-font-specification:Serif">N</text>

	<g
   id="g33">
		<path
   d="m 983.373,639.854 -53.942,31.087 9.928,-20.114 -18.202,-13.074 62.216,2.101 z"
   id="path35"
   style="fill:#ff0000" />
	</g>
</g>
<g
   id="g37">
	<g
   id="g39">
		<line
   fill="none"
   stroke="#404040"
   stroke-width="12"
   x1="60"
   y1="681"
   x2="150"
   y2="681"
   id="line41"
   style="fill:none;stroke:#404040;stroke-width:12" />
		<line
   fill="none"
   stroke="#FFFFFF"
   stroke-width="12"
   x1="150"
   y1="681"
   x2="240"
   y2="681"
   id="line43"
   style="fill:none;stroke:#ffffff;stroke-width:12" />
		<line
   fill="none"
   stroke="#404040"
   stroke-width="12"
   x1="60"
   y1="669"
   x2="114.863"
   y2="669"
   id="line45"
   style="fill:none;stroke:#404040;stroke-width:12" />
		<line
   fill="none"
   stroke="#404040"
   stroke-width="12"
   x1="169.72701"
   y1="669"
   x2="224.59"
   y2="669"
   id="line47"
   style="fill:none;stroke:#404040;stroke-width:12" />
		<line
   fill="none"
   stroke="#FFFFFF"
   stroke-width="12"
   x1="114.863"
   y1="669"
   x2="169.726"
   y2="669"
   id="line49"
   style="fill:none;stroke:#ffffff;stroke-width:12" />
		<line
   fill="none"
   stroke="#FFFFFF"
   stroke-width="12"
   x1="224.59"
   y1="669"
   x2="279.453"
   y2="669"
   id="line51"
   style="fill:none;stroke:#ffffff;stroke-width:12" />
		<line
   fill="none"
   stroke="#404040"
   stroke-width="12"
   x1="279.45401"
   y1="669"
   x2="334.31699"
   y2="669"
   id="line53"
   style="fill:none;stroke:#404040;stroke-width:12" />
		<line
   fill="none"
   stroke="#404040"
   stroke-width="12"
   x1="240"
   y1="681"
   x2="330"
   y2="681"
   id="line55"
   style="fill:none;stroke:#404040;stroke-width:12" />
		<line
   fill="none"
   stroke="#404040"
   x1="60"
   y1="675"
   x2="330"
   y2="675"
   id="line57"
   style="fill:none;stroke:#404040" />
		<line
   fill="none"
   stroke="#000000"
   x1="60"
   y1="687"
   x2="330"
   y2="687"
   id="line59"
   style="fill:none;stroke:#000000" />
		<line
   fill="none"
   stroke="#000000"
   x1="60"
   y1="663"
   x2="334.31699"
   y2="663"
   id="line61"
   style="fill:none;stroke:#000000" />
	</g>
	<g
   id="g63">
		<text
   transform="translate(59.0347,634.7227)"
   id="text65"><tspan
     x="0"
     y="0"
     id="tspan67"
     style="font-size:24px;font-family:LiberationSans">FEET </tspan><tspan
     x="0"
     y="96"
     id="tspan69"
     style="font-size:24px;font-family:LiberationSans">METERS</tspan></text>

		<g
   id="g71">
			<text
   transform="matrix(0.9908,0,0,1,56.5527,654.542)"
   id="text73"
   style="font-size:18px;font-family:LiberationSans">0</text>

			<text
   transform="matrix(0.9908,0,0,1,100.8872,654.542)"
   id="text75"
   style="font-size:18px;font-family:LiberationSans">200</text>

			<text
   transform="matrix(0.9908,0,0,1,155.1411,654.542)"
   id="text77"
   style="font-size:18px;font-family:LiberationSans">400</text>

			<text
   transform="matrix(0.9908,0,0,1,209.395,654.542)"
   id="text79"
   style="font-size:18px;font-family:LiberationSans">600</text>

			<text
   transform="matrix(0.9908,0,0,1,263.6494,654.542)"
   id="text81"
   style="font-size:18px;font-family:LiberationSans">800</text>

			<text
   transform="matrix(0.9908,0,0,1,312.9443,654.542)"
   id="text83"
   style="font-size:18px;font-family:LiberationSans">1000</text>

		</g>
		<g
   id="g85">
			<text
   transform="translate(56.5068,705.542)"
   id="text87"
   style="font-size:18px;font-family:LiberationSans">0</text>

			<text
   transform="translate(135.4961,705.542)"
   id="text89"
   style="font-size:18px;font-family:LiberationSans">100</text>

			<text
   transform="translate(224.4966,705.542)"
   id="text91"
   style="font-size:18px;font-family:LiberationSans">200</text>

			<text
   transform="translate(313.4966,705.542)"
   id="text93"
   style="font-size:18px;font-family:LiberationSans">300</text>

		</g>
	</g>
</g>
<g
   id="g95">
	
		<line
   fill="none"
   stroke="#FF0000"
   stroke-width="2.4"
   stroke-linecap="round"
   stroke-linejoin="round"
   x1="539"
   y1="126"
   x2="504.565"
   y2="126"
   id="line97"
   style="fill:none;stroke:#ff0000;stroke-width:2.4000001;stroke-linecap:round;stroke-linejoin:round" />
	<g
   id="g99">
		<path
   d="m 508.874,126 5.259,8.646 -0.295,0.197 -14.101,-5.602 C 494.825,128.161 489.912,127.08 485,126 c 4.913,-1.083 9.825,-2.161 14.737,-3.244 l 14.101,-5.599 0.295,0.145 -5.259,8.698 z"
   id="path101"
   style="fill:#ff0000" />
	</g>
</g>
<text
   transform="translate(59.9995,75.4453)"
   id="text103"
   style="font-size:48px;font-style:normal;font-variant:normal;font-weight:normal;font-stretch:normal;text-align:start;line-height:125%;writing-mode:lr-tb;text-anchor:start;font-family:LiberationSerif;-inkscape-font-specification:Serif">Charlotte Motor Speedway</text>

<text
   transform="translate(480,674.2969)"
   id="text105"><tspan
     x="0"
     y="0"
     id="tspan107"
     style="font-size:32px;font-family:LiberationSans">Circuit length: </tspan><tspan
     x="0"
     y="36"
     id="tspan109"
     style="font-size:32px;font-family:LiberationSans">1½ mi. (2.41 km)</tspan></text>

</svg>